<?xml version="1.0"?>
<svg version="1.1" xmlns="http://www.w3.org/2000/svg" width="160" height="70" style=""><path fill="#061b80" d="M16.155,54.8l0-2.805l2.475-0.99l0-15.51l-2.475-0.99l0-2.805l7.92-0.165l8.91,15.246l0-11.286l-2.409-0.99l0-2.805l9.405-0.165l0,2.97l-2.475,0.99l0,19.305l-5.511,0l-8.844-14.949l0,11.154l2.574,0.99l0,2.805l-9.57,0z M50.59083,51.005l0-15.51l-3.135,0l-0.825,3.135l-3.036,0l0-7.095l19.14,0l0,7.095l-3.069,0l-0.825-3.135l-3.135,0l0,15.51l3.135,0.99l0,2.805l-11.385,0l0-2.805z"/><path fill="#1f29bf" d="M97.30866,49.385q0,1.26-0.56,2.38q-1.19,2.52-4.55,4.2t-7,1.68q-5.53,0-7.525-3.78q-3.605,3.01-5.145,3.01q-0.28,0-0.49-0.105q-1.05-0.56-1.05-2.415t1.54-4.55t2.695-3.185q0.525-0.175,0.805-0.175q1.015,0,1.54,1.68l1.05,3.36q1.015-1.085,2.765-3.465l3.115-4.2q5.74-7.455,7.525-8.155q0.63-0.245,1.295-0.245t1.1025,0.28t0.4375,0.7q0,0.63-1.015,0.735q-1.05,0.595-4.0075,3.4825t-3.5175,3.6575q-3.92,5.46-7.245,8.4q2.135,4.235,6.405,4.235q2.59,0,5.145-1.6275t3.815-4.0075q0.56-1.015,0.56-2.275t-0.9975-2.3975t-2.5025-1.6625q-0.7-0.105-2.24-0.2975t-1.54-0.6475q0-0.175,0.14-0.315q0.42-0.49,1.085-0.49q0.385,0,0.7525,0.14t0.5775,0.21t0.49,0.175q0.77,0.07,1.33,0.07q2.31,0,4.2-0.735q2.415-0.945,3.08-2.835q0.42-1.225,0.42-2.205q0-2.415-2.345-3.605q-2.03-1.05-5.565-1.05q-5.565,0-9.975,2.1q-2.24,1.05-4.2525,3.115t-2.0125,3.535q0,1.015,0.525,1.68q0.21,0.28,0.735,0.7q0.175,0.105-0.21,0.105q-2.17-0.49-2.17-2.905t2.45-4.55q1.82-1.575,4.095-2.555q4.725-2.03,10.745-2.03q4.305,0,6.86,1.26q2.975,1.4,2.975,4.235q0,1.12-0.455,2.275q-0.735,2.1-3.815,3.185q-2.31,0.805-4.97,0.84q2.065,0.105,3.4825,1.5225t1.4175,3.5175z M74.94366,48.09q-0.035,0-0.175,0.07q-2.59,3.745-2.59,6.02q0,0.945,0.455,1.715q0.105,0.175,0.35,0.175q1.12,0,4.305-3.185l-0.105-0.14q-1.4-4.655-2.24-4.655z M103.08961,55.3q1.155,0,2.975-1.225t3.535-3.325q0.42-0.56,0.665-0.56t0.245,0.21t-1.435,1.82q-3.5,3.85-5.845,3.85q-1.155,0-1.96-0.5425t-0.805-1.68t0.595-2.6425q1.015-2.38,3.255-5.985q4.095-6.65,5.81-6.65q0.35,0,0.7175,0.2625t0.4025,0.5775q-0.805,1.085-3.0975,4.165t-3.1675,4.4275t-1.3125,2.0125t-0.6475,1.0325t-0.49,0.9625q-0.595,1.19-0.595,2.24t1.155,1.05z M119.75556,48.58q0,1.225-2.345,4.095q-2.765,3.395-4.725,3.395l-0.56,0q-0.91,0-1.435-0.945q-0.42-0.665-0.42-1.47q0-2.1,3.0625-5.8975t4.9525-3.7975q1.785,0,1.785,1.89q0,0.49-0.175,1.26q0.035,0.105,0.665,0.105t1.925-0.665q-0.035,0.595-2.765,1.715q0.035,0.14,0.035,0.315z M117.48056,46.76q-1.19,0-3.3775,2.8t-2.1875,4.13t0.84,1.33q1.505,0,3.815-2.73t2.31-3.92q-0.56-0.315-1.4-1.61z M133.69151,45.325l0.49-0.105q0.455,0,0.7175,0.28t0.2625,0.4375t-0.035,0.35t-1.015,1.7675q-1.225,2.135-2.03,3.605q-2.835,5.285-4.34,7.245q-3.22,4.27-6.125,4.27q-1.015,0-1.7675-0.8575t-0.7875-1.9075q0.105-0.42,0.315-0.42q0.105,0,0.175,0.245q0.175,0.91,0.665,1.4t0.98,0.49q1.995,0,4.27-2.625q1.505-1.75,3.325-5.11l1.75-3.465l-2.625,2.66q-2.52,2.415-3.4475,2.415t-1.7675-0.63q-0.945-0.7-0.945-1.855q0-2.555,3.5875-6.09t6.5275-3.535q1.19,0,1.54,0.77q0.105,0.28,0.175,0.4725t0.105,0.1925z M123.22651,53.935q0,1.26,0.875,1.26q2.03,0,5.53-4.445l3.71-5.11q-0.21-0.49-0.875-0.49q-2.17,0-5.705,3.3425t-3.535,5.4425z M142.93746,55.475q-1.015,0.595-2.5025,0.595t-2.275-0.98t-1.3475-3.115q-0.63,0.63-0.875,0.63q-0.175,0-0.175-0.245t0.175-0.42q1.155-1.435,3.92-4.13l4.41-4.13q1.89-1.785,2.24-1.785q1.12,0,1.12,0.84q0,0.42-0.3325,0.8225t-0.49,0.63t-0.3325,0.4375q-0.63,1.085-1.2775,4.48t-0.9975,4.725q2.905-0.035,5.985-3.78q0.35-0.35,0.525-0.35t0.175,0.2275t-0.315,0.6125q-2.03,2.38-3.78,3.325q-1.05,0.525-2.73,0.875z M138.21246,51.59q0,1.19,0.7875,1.9425t1.7675,0.7525t1.505-0.385q0.7-0.385,1.3825-3.22t0.8225-5.005l0.14-1.19q-1.925,1.435-4.1125,3.71t-2.2575,3.01q-0.035,0.21-0.035,0.385z"/></svg>
